<svg xmlns="http://www.w3.org/2000/svg" xml:space="preserve" viewBox="0 0 512 512"><path d="M1 189V1h512v512H1V189m492.975 233.056c-.13-1.641.106-3.418-.446-4.901-3.814-10.245-7.758-20.441-11.727-30.628-4.57-11.727-9.274-23.402-13.8-35.146-4.774-12.389-9.406-24.832-13.954-38.038.647-2.712 1.855-5.423 1.859-8.135.102-73.47.088-146.941.073-220.412-.002-7.753-4.996-12.774-12.735-12.774-124.117-.015-248.233-.014-372.35-.002-7.994 0-12.878 5.008-12.879 13.132-.009 73.137-.04 146.274.116 219.411.007 3.087 1.79 6.17 2.011 9.433-1.349 3.217-2.781 6.403-4.033 9.657-5.566 14.47-11.077 28.96-16.615 43.44-4.317 11.29-8.849 22.503-12.894 33.889-2.546 7.168-4.37 14.592-6.575 22.759 2.2 14.457 4.732 18.446 18.308 18.421 146.398-.264 292.796-.165 439.194-.166 1.666 0 3.555.487 4.949-.134 2.763-1.229 6.47-2.481 7.594-4.79 2.106-4.33 2.652-9.417 3.904-15.016z"/><path fill="#727172" d="M453.902 314.13c4.694 12.419 9.326 24.862 14.1 37.25 4.526 11.745 9.23 23.42 13.8 35.147 3.97 10.187 7.913 20.383 11.727 30.628.552 1.483.317 3.26-.043 5.365-1.322.48-2.155.51-2.988.51-155.474.002-310.949.002-466.423-.004-1.331 0-2.662-.093-3.993-.143 2.148-7.31 3.973-14.733 6.52-21.901 4.044-11.386 8.576-22.6 12.893-33.889 5.538-14.48 11.049-28.97 16.615-43.44 1.252-3.254 2.684-6.44 4.788-9.718 5.147.28 9.538.914 13.93.92 49.62.07 99.24.137 148.86.023 76.738-.175 153.476-.492 230.214-.749M369.5 375.055c21.495 0 42.99.023 64.486-.015 7.538-.013 10.23-3.741 7.912-10.958-3.82-11.89-7.723-23.755-11.614-35.623-2.788-8.502-3.951-9.338-12.805-9.338H96.55c-1.167 0-2.334-.01-3.5.01-4.319.071-7.25 2.03-8.612 6.231-4.313 13.307-8.683 26.595-12.964 39.912-1.122 3.493-.699 6.931 2.832 8.64 2.109 1.021 4.817 1.097 7.257 1.098 95.646.05 191.292.043 287.938.043m-58.623 28.578c-.956-4.892-2.023-9.767-2.837-14.683-.734-4.435-3.116-6.925-7.645-6.93-28.967-.037-57.933-.023-86.9-.015-4.557.001-6.954 2.255-7.643 6.824-.817 5.419-2.018 10.78-3.074 16.162-1.665 8.486.389 11.07 8.93 11.073 29.965.012 59.931.008 89.897.003 9.07-.002 11.189-2.636 9.272-12.434z"/><path fill="#252425" d="M453.975 313.736c-76.811.65-153.549.967-230.287 1.142-49.62.114-99.24.047-148.86-.023-4.392-.006-8.783-.64-13.562-1.01-1.344-3.113-3.127-6.195-3.134-9.282-.156-73.137-.125-146.274-.116-219.411.001-8.124 4.885-13.131 12.879-13.132 124.117-.012 248.233-.013 372.35.002 7.74 0 12.733 5.021 12.735 12.774.015 73.47.03 146.941-.073 220.412-.004 2.712-1.212 5.423-1.932 8.528m-21.25-10.663c6.438-2.629 8.244-5.459 8.244-13.104.007-62.806.005-125.611.004-188.417 0-11.583-3.313-14.94-14.778-14.94-112.784-.003-225.568-.003-338.351 0-11.196 0-14.719 3.484-14.72 14.537-.002 62.639-.001 125.278.002 187.917 0 1.499-.162 3.037.112 4.489.93 4.942 3.292 8.664 9.517 9.763 1.327.068 2.655.196 3.983.197 113.45.009 226.9.01 340.35-.014 1.635 0 3.271-.331 5.636-.428M396.5 73.988H72.385l.001.66H442.42l.002-.66H396.5z"/><path fill="#232122" d="M20.054 423.312c1.359-.38 2.69-.286 4.02-.286 155.475.006 310.95.006 466.424.004.833 0 1.666-.03 2.96-.096-.735 4.72-1.28 9.809-3.387 14.137-1.124 2.31-4.83 3.562-7.594 4.791-1.394.62-3.283.134-4.949.134-146.398.001-292.796-.098-439.194.166-13.576.025-16.107-3.964-18.28-18.85m357.446 16.69h102.065l-.004-.782H34.396l-.001.783H377.5z"/><path fill="#ADADAD" d="M369 375.055c-96.146 0-191.792.007-287.438-.043-2.44-.001-5.148-.077-7.257-1.098-3.53-1.709-3.954-5.147-2.832-8.64 4.28-13.317 8.65-26.605 12.964-39.912 1.361-4.2 4.293-6.16 8.612-6.231 1.166-.02 2.333-.01 3.5-.01h320.93c8.854 0 10.017.836 12.805 9.338 3.89 11.868 7.793 23.733 11.614 35.623 2.318 7.217-.374 10.945-7.912 10.958-21.495.038-42.99.014-64.986.015m-67.5-15.903c-50.14.018-100.28.035-150.42.06-1.664 0-3.866-.561-4.869.276-1.689 1.41-2.616 3.732-3.863 5.67 1.402.772 2.74 2.014 4.22 2.216 2.951.403 5.98.293 8.977.295 47.642.028 95.284.05 142.926.05 22.821 0 45.643.007 68.462-.205 1.573-.015 4.364-1.737 4.448-2.829.2-2.612-.837-5.362-4.417-5.457-1.498-.04-2.997-.072-4.496-.072-19.99-.005-39.979-.003-60.968-.004m-190.112-34.86c-3.327.035-6.84-.559-9.911.347-1.803.531-3.065 3.36-4.167 5.375-.195.357 1.553 2.567 2.468 2.611 5.145.251 10.385.594 15.427-.178 1.756-.27 3.037-3.633 4.536-5.583-1.64-.857-3.238-1.817-4.942-2.523-.71-.295-1.644-.05-3.41-.05m300.694 43.41c3.798.001 7.603.133 11.393-.048 2.02-.096 5.353 1.134 5.089-2.673-.21-3.015-1.464-5.85-5.443-5.796-4.459.06-8.919.052-13.377-.004-3.57-.044-4.658 1.772-2.993 4.648.93 1.607 2.944 2.588 5.33 3.873m-17.208-42.67c-.735 5.47.815 7.618 5.76 7.746 3.634.095 7.279.151 10.907-.028 2.033-.1 5.325 1.154 5.215-2.58-.09-3.082-1.434-5.901-5.358-5.854-5.28.064-10.56.181-16.524.717m-301.26 42.673c3.328-.036 6.889.632 9.9-.364 1.897-.627 3.058-3.693 4.281-5.82.124-.215-1.582-2.141-2.484-2.178-5.15-.21-10.406-.64-15.423.208-1.833.31-3.108 3.921-4.637 6.027 1.644.709 3.257 1.511 4.947 2.085.747.253 1.65.042 3.417.042m100.644-43.414c-3.825.02-7.656-.08-11.473.099-3.332.155-4.245 2.78-3.696 5.306.274 1.257 2.465 2.808 3.92 2.959 3.95.41 7.976 0 11.96.185 3.709.172 5.721-1.335 5.865-5.062.17-4.42-3.212-3.227-6.576-3.487m52.132 8.51c1.66-.004 3.322-.037 4.981-.004 3.192.065 4.456-1.594 4.405-4.648-.052-3.126-1.915-3.889-4.594-3.861-4.316.043-8.634.041-12.95.01-3.202-.023-4.36 1.596-4.319 4.684.043 3.231 1.912 3.864 4.556 3.822 2.324-.036 4.649-.005 7.921-.003m12.214-6.69c-.564 2.896-1.13 6.181 2.955 6.521 5.123.426 10.32.29 15.457-.039 1.068-.068 2.854-2.062 2.824-3.128-.045-1.662-1.335-4.692-2.141-4.707-6.214-.11-12.438.366-19.095 1.353m70.636 6.689c2.382-.335 5.781 1.122 5.853-3.296.068-4.186-2.301-5.416-6.105-5.247-3.65.162-7.314 0-10.97.047-2.304.029-5.024-.346-4.868 3.274.14 3.237 1.445 5.378 5.175 5.242 3.32-.122 6.65-.023 10.915-.02m-105.328-.024c3.285-.054 4.482-2.143 4.078-4.938-.18-1.25-1.622-3.248-2.583-3.303-5.292-.302-10.653-.454-15.895.161-1.278.15-2.58 3.28-3.057 5.238-.152.622 2.27 2.609 3.62 2.723 4.287.362 8.624.135 13.837.119m-62.318-8.487c-2.148.035-4.695-.634-6.338.295-1.8 1.019-2.951 3.422-3.938 5.44-.193.396 1.618 2.547 2.57 2.597 5.113.263 10.315.588 15.331-.154 1.65-.244 2.838-3.616 4.237-5.557-1.492-.873-2.894-2.17-4.5-2.512-2.057-.438-4.277-.107-7.362-.109m133.066 8.509c2.822 0 5.71.363 8.44-.136 1.681-.307 4.17-1.705 4.454-3.013.595-2.751-.612-5.299-4.208-5.317-4.646-.023-9.293-.006-13.939-.02-2.845-.007-3.708 1.523-3.512 4.17.41 5.535 4.577 4.054 8.765 4.316m48.138-.685c4.933.23 9.865.568 14.8.636 2.104.029 5.25.921 5.163-2.782-.076-3.228-1.413-5.796-5.403-5.688-3.645.098-7.295-.004-10.942.015-6.551.033-7.15 1.075-3.618 7.819m-223.056 35.592c3.83-.018 7.666.09 11.489-.089 3.738-.174 4.65-3.161 4.475-6.004-.055-.897-2.832-2.182-4.446-2.318-3.968-.335-7.987-.023-11.982-.128-3.913-.102-5.422 2.156-5.53 5.575-.12 3.824 2.972 2.654 5.994 2.964m276.988-8.371c-4.459-.05-8.92-.211-13.376-.103-2.062.05-5.27-1.046-5.188 2.68.07 3.166 1.393 5.83 5.34 5.79 3.634-.039 7.283.186 10.9-.07 1.95-.138 3.848-1.04 5.77-1.596-.88-2.14-1.758-4.281-3.446-6.701m-6.92-31.313c-1.868-1.24-3.613-3.222-5.632-3.558-3.54-.59-7.279-.456-10.87-.052-1.862.209-4.965 1.463-5.11 2.562-.417 3.15 1.09 5.819 5.027 5.81 4.464-.009 8.927-.019 13.39.01 2.737.019 4.072-1.084 3.195-4.772m-255.346 4.778c2.495-.034 5.308.63 7.391-.313 1.824-.826 3.009-3.368 4.04-5.375.2-.39-1.573-2.584-2.5-2.629-5.145-.25-10.383-.571-15.426.2-1.634.25-2.774 3.728-4.14 5.73 1.564.796 3.054 1.884 4.712 2.302 1.566.395 3.308.085 5.923.085m20.236 11.404c3.814-.01 7.628.004 11.442-.04 3.75-.042 4.26-3.021 4.11-5.57-.054-.926-2.672-2.293-4.21-2.428-3.95-.345-7.96.056-11.929-.16-3.876-.21-5.608 1.815-5.757 5.238-.184 4.226 3.288 2.522 6.344 2.96m134.378 7.966c1.606 1.26 3.1 3.379 4.842 3.608 4.095.538 8.31.163 12.475.18 2.312.01 4.515-.126 4.429-3.282-.076-2.766-.837-4.939-4.258-4.895-4.665.059-9.354-.237-13.983.172-1.28.113-2.387 2.185-3.505 4.217m-85.913 1.18c.54.765 1.06 2.177 1.624 2.194 5.92.179 11.867.375 17.754-.094.95-.075 2.018-3.343 2.248-5.231.08-.662-2.15-2.229-3.4-2.316-4.275-.297-8.588.017-12.874-.165-3.509-.15-5.326 1.216-5.352 5.612m162.476-12.487c-.462-3.638-2.508-5.062-6.158-4.858-3.811.213-7.664-.188-11.455.158-1.568.144-4.257 1.475-4.299 2.367-.132 2.803.55 5.747 4.577 5.677 4.652-.082 9.317.155 13.953-.127 1.213-.074 2.34-1.562 3.382-3.217m-86.97-4.562c-5.321-.08-10.642-.142-15.962-.244-2.843-.054-4.27 1.602-3.537 4.05.473 1.584 2.263 3.713 3.683 3.896 4.095.53 8.3.23 12.462.192 5.749-.055 6.745-1.899 3.353-7.894m-38.963 7.903c3.823-.005 7.7.353 11.443-.2 1.433-.213 3.51-2.48 3.55-3.862.04-1.325-2.052-3.712-3.432-3.89-4.089-.529-8.29-.115-12.443-.227-3.193-.087-5.637.4-5.611 4.426.026 4.117 2.864 3.755 6.493 3.753m158.896-4.298c.891 1.324 1.724 3.744 2.683 3.795 6.441.34 12.909.177 19.801.177-.887-4.203-1.006-7.752-5.656-7.802-4.632-.05-9.279-.21-13.886.129-1.134.083-2.14 1.91-2.942 3.701m-8.581 4.293c1.182-.936 3.38-1.899 3.356-2.804-.07-2.684-1.03-5.326-4.602-5.326-4.153-.001-8.326-.246-12.45.093-1.749.144-4.82 1.483-4.835 2.32-.052 3.04.997 5.908 5.163 5.747 4.147-.162 8.305-.03 13.368-.03m-224.061 10.55c.869-2.38 3.92-5.81-.61-6.65-5.296-.98-10.951-.568-16.364.027-1.387.152-2.668 3.17-3.5 5.087-.195.45 1.627 2.566 2.53 2.572 5.768.04 11.538-.296 17.944-1.036m123.377-18.565c-.513 1.833-1.665 3.802-1.313 5.45.233 1.092 2.573 2.327 4.054 2.446 4.136.334 8.315.104 12.477.127 2.469.014 4.768.027 4.59-3.542-.147-2.981-1.2-4.695-4.474-4.628-4.826.1-9.655.038-15.334.147m59.328 19.09c4.94.227 9.88.577 14.82.62 2.048.017 5.252 1.09 5.122-2.744-.112-3.309-1.535-5.659-5.558-5.413-3.64.222-7.306.03-10.96.046-6.39.026-6.804.747-3.424 7.491M98.736 344.201c4.164-.017 8.452.544 12.439-.308 1.839-.393 3.089-3.545 4.606-5.446-1.521-.799-2.988-2.126-4.574-2.287-3.463-.35-6.986-.126-10.485-.106-5.956.033-7 1.104-7.176 7.75 1.4.13 2.834.264 5.19.397m27.06 0c4.153-.013 8.423.535 12.407-.294 1.807-.376 3.048-3.48 4.545-5.346-1.494-.837-2.946-2.285-4.492-2.394-4.463-.313-9.063-.624-13.4.186-1.779.333-3.02 3.54-4.507 5.44 1.512.803 3.025 1.606 5.447 2.408m65.296 11.75c1.136-.174 2.861.044 3.292-.602 1.034-1.55 1.69-3.467 1.999-5.32.098-.586-1.363-2.044-2.142-2.069-5.482-.173-11-.362-16.438.16-1.174.114-2.547 3.01-2.879 4.8-.144.778 2.037 2.76 3.29 2.882 3.956.385 7.973.149 12.878.15m34.937-18.861c-6.218-.286-12.442-.789-18.646-.612-.881.025-2.061 3.302-2.296 5.174-.087.696 2.093 2.319 3.327 2.418 3.97.32 7.996-.097 11.97.188 4.923.353 6.746-1.774 5.645-7.168m91.421 13.246c.035 4.468 2.331 6.047 6.67 5.677 3.444-.294 6.933-.028 10.401-.071 2.267-.029 4.922.466 4.777-3.236-.12-3.058-1.144-5.045-4.685-4.95-4.457.12-8.925-.098-13.375.107-1.258.058-2.472 1.087-3.788 2.473m-131.808-14.284c-1.827.027-4.014-.559-5.384.246-1.523.896-2.638 2.945-3.24 4.725-.242.715 1.312 2.927 2.117 2.964 5.467.25 10.99.437 16.403-.172 1.248-.14 2.36-3.385 3-5.372.124-.382-2.18-2.102-3.486-2.273-2.777-.364-5.634-.116-9.41-.118m216.925 12.48c-.044 5.938 1.156 7.335 6.486 7.405 3.499.046 7.024.257 10.488-.093 1.784-.18 4.96-1.494 4.929-2.174-.141-2.995-1.09-6.006-5.217-5.888-5.322.152-10.647.19-16.686.75m-13.195 7.416c.66 0 1.343.106 1.978-.02 2.111-.421 5.591 1.347 5.536-2.787-.05-3.681-2.047-5.664-6.074-5.41-3.62.23-7.272-.093-10.895.103-1.981.107-5.205-1.266-5.005 2.73.153 3.074 1.359 5.466 5.082 5.386 2.807-.06 5.616-.006 9.378-.002m-253.596-.151 3.302-6.51c-1.107-.499-2.2-1.395-3.322-1.43-4.79-.148-9.67-.537-14.342.228-1.719.281-2.955 3.507-4.411 5.39 1.498.823 2.955 2.247 4.504 2.355 4.443.312 8.922.09 14.269-.033m-26.457-.593 3.467-7.332c-7.307 0-13.307-.425-19.173.273-1.647.196-2.9 3.696-4.333 5.68 1.445.707 2.873 1.97 4.34 2.018 4.98.162 9.975-.107 15.7-.64m220.905-19.15c-3.325 0-6.65-.06-9.973.02-2.203.054-5.136-.664-4.892 3.105.183 2.846 1.054 5.182 4.741 5.049 4.483-.163 8.986.132 13.457-.151 1.246-.08 3.501-1.675 3.406-2.274-.305-1.909-1.271-3.848-2.46-5.413-.463-.61-2.2-.252-4.279-.337m-52.119 11.783c-4.788-.015-9.578.012-14.365-.062-2.594-.04-4.03.862-4.004 3.71.026 2.716.784 4.495 3.896 4.46 4.293-.047 8.598.174 12.874-.094 1.542-.097 4.274-1.265 4.28-1.966.021-1.965-1.096-3.943-2.68-6.048m-24.177 6.262c.128-2.476 1.618-5.865-2.53-6.161-5.257-.375-10.574-.24-15.838.105-.984.065-2.542 2.13-2.572 3.304-.037 1.46 1.229 4.227 1.949 4.233 6.179.047 12.361-.402 18.99-1.481z"/><path fill="#AFAFAF" d="M310.928 404.05c1.866 9.381-.253 12.015-9.323 12.017-29.966.005-59.932.01-89.897-.003-8.541-.004-10.595-2.587-8.93-11.073 1.056-5.382 2.257-10.743 3.074-16.162.689-4.569 3.086-6.823 7.643-6.824 28.967-.008 57.933-.022 86.9.015 4.529.005 6.911 2.495 7.645 6.93.814 4.916 1.88 9.79 2.888 15.1z"/><path fill="#E6FDFF" d="M82.01 302.977c-5.48-.758-7.842-4.48-8.772-9.422-.274-1.452-.111-2.99-.112-4.489-.003-62.64-.004-125.278-.001-187.917 0-11.053 3.523-14.537 14.719-14.537 112.783-.003 225.567-.003 338.35 0 11.466 0 14.779 3.357 14.779 14.94.001 62.806.003 125.611-.004 188.417 0 7.645-1.806 10.475-8.934 12.807-2.164-.457-3.638-.755-5.112-.756-113.22-.021-226.442-.024-339.664.021-1.75 0-3.499.61-5.248.936z"/><path fill="#F5FFFF" d="M82.383 303.148c1.377-.497 3.127-1.106 4.876-1.107 113.222-.045 226.443-.042 339.664-.02 1.474 0 2.948.298 4.747.715-1.31.434-2.947.764-4.583.765-113.45.024-226.9.023-340.349.014-1.328 0-2.656-.129-4.355-.367z"/><path d="M397 73.988h45.422l-.002.66H72.386v-.66H397zM377 440.003H34.395v-.783h445.166l.004.783H377z"/><path fill="#464445" d="M302 359.152c20.49 0 40.479-.001 60.468.004 1.499 0 2.998.032 4.496.072 3.58.095 4.618 2.845 4.417 5.457-.084 1.092-2.875 2.814-4.448 2.829-22.82.212-45.64.205-68.462.205-47.642 0-95.284-.022-142.926-.05-2.997-.002-6.026.108-8.977-.295-1.48-.202-2.818-1.444-4.22-2.215 1.247-1.939 2.174-4.261 3.863-5.671 1.003-.837 3.205-.276 4.869-.277 50.14-.024 100.28-.04 150.92-.059z"/><path fill="#4A4849" d="M111.856 324.291c1.3 0 2.233-.245 2.944.05 1.703.706 3.3 1.666 4.94 2.523-1.498 1.95-2.78 5.313-4.535 5.583-5.042.772-10.282.43-15.427.178-.915-.044-2.663-2.254-2.468-2.611 1.102-2.016 2.364-4.844 4.167-5.375 3.07-.906 6.584-.312 10.379-.348zM411.652 367.69c-1.956-1.274-3.97-2.255-4.9-3.862-1.665-2.876-.577-4.692 2.993-4.648 4.458.056 8.918.064 13.377.004 3.979-.054 5.233 2.78 5.443 5.796.264 3.807-3.07 2.577-5.09 2.673-3.789.18-7.594.05-11.823.037zM395.216 324.811c5.622-.315 10.902-.432 16.182-.496 3.924-.047 5.268 2.772 5.358 5.854.11 3.734-3.182 2.48-5.215 2.58-3.628.18-7.273.123-10.907.028-4.945-.128-6.495-2.275-5.418-7.966zM93.148 367.705c-1.3 0-2.203.21-2.95-.042-1.69-.574-3.303-1.376-4.947-2.085 1.53-2.106 2.804-5.717 4.637-6.027 5.017-.848 10.274-.419 15.423-.208.902.037 2.608 1.963 2.484 2.178-1.223 2.127-2.384 5.193-4.282 5.82-3.01.996-6.57.328-10.365.364zM194.718 324.291c2.905.26 6.287-.934 6.117 3.487-.144 3.727-2.156 5.234-5.866 5.062-3.983-.185-8.01.224-11.96-.185-1.454-.151-3.645-1.702-3.919-2.96-.549-2.524.364-5.15 3.696-5.305 3.817-.179 7.648-.078 11.932-.099z"/><path fill="#4A494A" d="M245.917 332.8c-2.798 0-5.123-.032-7.447.004-2.644.042-4.513-.59-4.556-3.822-.04-3.088 1.117-4.707 4.319-4.684 4.316.031 8.634.033 12.95-.01 2.68-.028 4.542.735 4.594 3.861.05 3.054-1.213 4.713-4.405 4.648-1.66-.033-3.32 0-5.455.004zM258.823 325.765c6.439-.641 12.663-1.118 18.877-1.007.806.015 2.096 3.045 2.141 4.707.03 1.066-1.756 3.06-2.824 3.128-5.137.329-10.334.465-15.457.039-4.085-.34-3.519-3.625-2.737-6.867z"/><path fill="#4A4849" d="M328.77 332.8c-3.795-.003-7.123-.102-10.444.02-3.73.136-5.035-2.005-5.175-5.242-.156-3.62 2.564-3.245 4.867-3.274 3.657-.046 7.321.115 10.971-.047 3.804-.17 6.173 1.06 6.105 5.247-.072 4.418-3.471 2.961-6.323 3.295zM223.466 332.785c-4.766.007-9.103.234-13.39-.128-1.35-.114-3.772-2.101-3.62-2.723.478-1.958 1.779-5.088 3.057-5.238 5.242-.615 10.603-.463 15.895-.16.961.054 2.403 2.051 2.583 3.302.404 2.795-.793 4.884-4.525 4.947z"/><path fill="#4A494A" d="M162.063 324.29c2.617 0 4.837-.33 6.894.108 1.606.343 3.008 1.64 4.5 2.512-1.399 1.941-2.587 5.313-4.237 5.557-5.016.742-10.218.417-15.33.154-.953-.05-2.764-2.201-2.571-2.596.987-2.019 2.138-4.422 3.938-5.44 1.643-.93 4.19-.26 6.805-.295z"/><path fill="#4A4849" d="M294.194 332.797c-3.72-.261-7.888 1.22-8.298-4.314-.196-2.648.667-4.178 3.512-4.17 4.646.013 9.293-.004 13.939.02 3.596.017 4.803 2.565 4.208 5.316-.283 1.308-2.773 2.706-4.455 3.013-2.73.5-5.617.135-8.906.135z"/><path fill="#4A494A" d="M342.481 331.873c-3.213-6.504-2.615-7.546 3.936-7.58 3.647-.018 7.297.084 10.942-.014 3.99-.108 5.327 2.46 5.403 5.688.087 3.703-3.06 2.811-5.162 2.782-4.936-.068-9.868-.407-15.119-.876z"/><path fill="#4A4849" d="M119.28 367.705c-2.559-.31-5.651.86-5.53-2.964.107-3.42 1.616-5.677 5.53-5.575 3.994.105 8.013-.207 11.981.128 1.614.136 4.39 1.42 4.446 2.318.176 2.843-.737 5.83-4.475 6.004-3.823.178-7.66.071-11.952.089zM397.136 359.473c1.283 2.28 2.162 4.421 3.04 6.562-1.921.557-3.818 1.458-5.77 1.596-3.616.256-7.265.031-10.9.07-3.946.04-5.27-2.624-5.339-5.79-.082-3.726 3.126-2.63 5.188-2.68 4.456-.108 8.917.052 13.78.242zM389.897 328.428c.79 3.28-.544 4.384-3.28 4.366-4.464-.03-8.927-.02-13.39-.01-3.938.008-5.445-2.66-5.028-5.81.145-1.1 3.248-2.354 5.11-2.563 3.591-.404 7.33-.537 10.87.052 2.019.336 3.764 2.317 5.718 3.965zM133.99 332.8c-2.14-.001-3.882.309-5.448-.086-1.658-.418-3.148-1.506-4.712-2.302 1.366-2.002 2.506-5.48 4.14-5.73 5.043-.771 10.28-.45 15.426-.2.927.045 2.7 2.24 2.5 2.629-1.031 2.007-2.216 4.549-4.04 5.375-2.083.944-4.896.28-7.866.313z"/><path fill="#454344" d="M154.233 344.203c-2.588-.438-6.06 1.266-5.876-2.96.15-3.423 1.88-5.447 5.757-5.237 3.969.215 7.978-.186 11.928.16 1.539.134 4.157 1.5 4.211 2.428.15 2.548-.36 5.527-4.11 5.57-3.814.043-7.628.028-11.91.04z"/><path fill="#444243" d="M289.045 351.74c1.152-1.603 2.26-3.675 3.539-3.788 4.63-.409 9.318-.113 13.983-.172 3.42-.044 4.182 2.129 4.258 4.895.086 3.156-2.117 3.291-4.429 3.282-4.166-.017-8.38.358-12.475-.18-1.742-.23-3.236-2.348-4.876-4.037zM203.166 352.933c.026-3.98 1.843-5.346 5.352-5.196 4.286.182 8.6-.132 12.873.165 1.25.087 3.481 1.654 3.4 2.316-.229 1.888-1.298 5.156-2.247 5.231-5.887.47-11.834.273-17.754.094-.563-.017-1.084-1.43-1.624-2.61z"/><path fill="#454344" d="M365.705 341.27c-1.104 1.247-2.232 2.735-3.445 2.809-4.636.282-9.301.045-13.953.127-4.026.07-4.71-2.874-4.577-5.677.042-.892 2.731-2.223 4.299-2.367 3.79-.346 7.644.055 11.455-.158 3.65-.204 5.696 1.22 6.22 5.267zM279.04 336.519c3.023 5.776 2.027 7.62-3.722 7.675-4.161.039-8.367.337-12.462-.192-1.42-.183-3.21-2.312-3.683-3.895-.732-2.45.694-4.105 3.537-4.051 5.32.102 10.64.165 16.33.463zM239.24 344.203c-3.16.002-6 .364-6.025-3.753-.026-4.026 2.418-4.513 5.611-4.426 4.153.112 8.354-.302 12.443.226 1.38.179 3.472 2.566 3.433 3.89-.04 1.383-2.118 3.65-3.551 3.862-3.742.554-7.62.196-11.91.2z"/><path fill="#444243" d="M398.472 339.522c.934-1.408 1.94-3.235 3.074-3.318 4.607-.338 9.254-.18 13.886-.13 4.65.05 4.77 3.6 5.656 7.803-6.892 0-13.36.163-19.801-.177-.959-.051-1.792-2.471-2.815-4.178zM389.568 344.2c-4.608-.002-8.766-.134-12.913.028-4.166.161-5.215-2.706-5.163-5.747.014-.837 3.086-2.176 4.834-2.32 4.125-.34 8.298-.094 12.45-.093 3.573 0 4.534 2.642 4.603 5.326.023.905-2.174 1.868-3.81 2.806zM165.643 355.012c-6.087.476-11.857.812-17.625.772-.903-.006-2.725-2.122-2.53-2.572.832-1.917 2.113-4.935 3.5-5.087 5.413-.595 11.068-1.007 16.363-.027 4.532.84 1.48 4.27.292 6.914z"/><path fill="#454344" d="M289.765 336.132c5.253-.058 10.082.003 14.908-.096 3.274-.067 4.327 1.647 4.474 4.628.178 3.57-2.121 3.556-4.59 3.542-4.162-.023-8.341.207-12.477-.127-1.481-.119-3.82-1.354-4.054-2.446-.352-1.648.8-3.617 1.739-5.5z"/><path fill="#444243" d="M348.35 355.01c-3.063-6.481-2.648-7.202 3.74-7.228 3.655-.016 7.32.176 10.96-.046 4.024-.246 5.447 2.104 5.56 5.413.129 3.834-3.075 2.76-5.122 2.743-4.942-.042-9.88-.392-15.137-.881zM98.274 344.201c-1.894-.133-3.328-.267-4.728-.398.175-6.645 1.22-7.716 7.176-7.75 3.499-.019 7.022-.244 10.485.107 1.586.161 3.053 1.488 4.574 2.287-1.517 1.9-2.767 5.053-4.606 5.446-3.987.852-8.275.291-12.9.308zM125.341 344.201c-1.967-.802-3.48-1.605-4.992-2.408 1.486-1.9 2.728-5.107 4.507-5.44 4.337-.81 8.937-.5 13.4-.186 1.546.109 2.998 1.557 4.492 2.394-1.497 1.866-2.738 4.97-4.545 5.346-3.984.829-8.254.28-12.862.294zM190.636 355.953c-4.449-.002-8.466.234-12.422-.15-1.253-.122-3.434-2.105-3.29-2.884.332-1.79 1.705-4.685 2.88-4.798 5.437-.523 10.955-.334 16.437-.16.78.024 2.24 1.482 2.142 2.069-.31 1.852-.965 3.77-1.999 5.32-.43.645-2.156.427-3.748.603z"/><path fill="#454344" d="M226.235 337.442c.895 5.043-.928 7.17-5.85 6.817-3.975-.285-8.001.132-11.97-.188-1.235-.1-3.415-1.722-3.328-2.418.235-1.872 1.415-5.15 2.296-5.174 6.204-.177 12.428.326 18.852.963z"/><path fill="#444243" d="M317.491 349.936c1.275-.985 2.489-2.014 3.747-2.072 4.45-.205 8.918.013 13.375-.107 3.541-.095 4.564 1.892 4.685 4.95.145 3.702-2.51 3.207-4.777 3.236-3.468.043-6.957-.223-10.4.071-4.34.37-6.636-1.209-6.63-6.078zM186.118 336.053c3.3.002 6.157-.246 8.934.118 1.306.17 3.61 1.891 3.487 2.273-.641 1.987-1.753 5.231-3.001 5.372-5.413.61-10.936.422-16.403.172-.805-.037-2.36-2.249-2.117-2.964.602-1.78 1.717-3.83 3.24-4.725 1.37-.805 3.557-.219 5.86-.246zM402.924 348.297c5.682-.323 11.007-.362 16.329-.514 4.128-.118 5.076 2.893 5.217 5.888.032.68-3.145 1.994-4.93 2.174-3.463.35-6.988.14-10.487.093-5.33-.07-6.53-1.467-6.129-7.641zM388.895 355.949c-3.285-.004-6.094-.059-8.9.002-3.724.08-4.93-2.312-5.083-5.386-.2-3.996 3.024-2.623 5.005-2.73 3.623-.196 7.276.127 10.895-.102 4.027-.255 6.025 1.728 6.074 5.41.055 4.133-3.425 2.365-5.536 2.786-.635.126-1.317.02-2.455.02zM135.335 355.854c-4.906.068-9.385.289-13.828-.023-1.549-.108-3.006-1.532-4.504-2.356 1.456-1.882 2.692-5.108 4.411-5.389 4.672-.765 9.552-.376 14.342-.228 1.121.035 2.215.931 3.322 1.43-1.1 2.17-2.201 4.34-3.743 6.566zM108.952 355.419c-5.357.318-10.352.587-15.333.425-1.466-.047-2.894-1.31-4.339-2.017 1.433-1.985 2.686-5.485 4.333-5.68 5.866-.699 11.866-.274 19.173-.274-1.485 3.14-2.476 5.236-3.834 7.546zM330.686 336.054c1.618.084 3.355-.274 3.818.336 1.189 1.565 2.155 3.504 2.46 5.413.095.6-2.16 2.195-3.406 2.274-4.47.283-8.974-.012-13.457.15-3.687.134-4.558-2.202-4.741-5.048-.244-3.769 2.69-3.05 4.892-3.104 3.322-.081 6.648-.022 10.434-.02z"/><path fill="#434142" d="M278.564 347.902c1.127 2.04 2.244 4.017 2.224 5.982-.007.701-2.739 1.869-4.28 1.966-4.277.268-8.582.047-12.875.094-3.112.035-3.87-1.744-3.896-4.46-.026-2.848 1.41-3.75 4.004-3.71 4.787.074 9.577.047 14.823.128zM253.706 354.487c-6.406.69-12.588 1.14-18.767 1.092-.72-.006-1.986-2.773-1.949-4.233.03-1.174 1.588-3.24 2.572-3.304 5.264-.344 10.581-.48 15.838-.105 4.148.296 2.658 3.685 2.306 6.55z"/></svg>